<svg width="1080" height="210" viewBox="0 0 1080 210" fill="none" xmlns="http://www.w3.org/2000/svg">
<g clip-path="url(#clip0_130_343)">
<path d="M466.648 149.511C468.709 148.299 470.22 148.967 471.191 151.505L474.095 158.939C474.699 160.75 473.911 162.14 471.736 163.109C462.773 167.705 452.725 170 441.587 170C426.089 170 413.947 165.62 405.172 156.855C396.393 148.089 392 136.032 392 120.678C392 104.963 395.999 92.7546 403.991 84.0538C411.983 75.3478 422.878 71 436.682 71C450.119 71 460.534 75.0783 467.921 83.2349C475.309 91.3969 479 102.182 479 115.603V124.487C479 126.782 477.786 127.935 475.368 127.935H410.709C411.438 136.15 414.676 142.739 420.428 147.696C426.175 152.652 433.654 155.13 442.855 155.13C451.818 155.13 459.746 153.256 466.648 149.511ZM410.347 114.515H461.564V113.61C461.564 105.146 459.444 98.4061 455.207 93.3904C450.971 88.3746 444.852 85.864 436.865 85.864C420.396 85.864 411.556 95.416 410.347 114.515Z" fill="url(#paint0_linear_130_343)"/>
<path d="M616.968 90.6737V137.953C616.968 143.9 617.945 147.977 619.904 150.176C621.862 152.376 625.66 153.479 631.29 153.479C631.536 153.479 634.231 153.118 639.371 152.408C641.084 152.169 642.126 153.118 642.491 155.26L643.959 163.646C644.205 165.072 643.348 166.143 641.389 166.858C637.472 168.284 632.638 169 626.882 169C616.603 169 609.287 166.768 604.938 162.305C600.595 157.847 598.424 150.383 598.424 139.919V90.6738H586.672C584.222 90.6738 583 89.5447 583 87.2865V78.9005C583 76.5204 584.222 75.333 586.672 75.333H598.789V53.2123C598.789 51.0707 599.892 50 602.096 50H613.297C615.746 50 616.969 51.0708 616.969 53.2123V75.333H639.371C641.82 75.333 643.042 76.5204 643.042 78.9005V87.2865C643.042 89.5447 641.82 90.6738 639.371 90.6738L616.968 90.6737Z" fill="url(#paint1_linear_130_343)"/>
<path d="M828.202 83.5346C821.004 75.1781 810.981 71 798.141 71C790.942 71 784.401 72.479 778.524 75.4481C772.641 78.4171 768.443 82.5629 765.924 87.8964L765.742 76.2687C765.742 74.2066 764.544 73.1755 762.143 73.1755H751.163C750.596 73.1755 750.108 73.2511 749.676 73.3796C749.498 73.3546 749.329 73.2655 749.15 73.3567L735.514 80.2761C734.827 80.6249 734.829 81.6159 735.518 81.9614L747.564 88.0049V184.551C747.564 186.85 748.762 188 751.163 188H762.865C765.143 188 766.282 186.85 766.282 184.551V153.484C771.325 164.383 781.941 169.835 798.141 169.835C810.981 169.835 821.004 165.651 828.202 157.295C835.401 148.939 839 136.647 839 120.415C839 104.182 835.401 91.891 828.202 83.5346ZM813.351 146.121C808.97 151.514 802.403 154.207 793.643 154.207C784.883 154.207 778.133 151.363 773.395 145.668C768.651 139.978 766.282 131.557 766.282 120.415C766.282 109.273 768.651 100.884 773.395 95.254C778.133 89.6184 784.883 86.8059 793.643 86.8059C802.403 86.8059 808.97 89.4672 813.351 94.8006C817.731 100.129 819.923 108.669 819.923 120.415C819.923 132.161 817.731 140.734 813.351 146.121Z" fill="url(#paint2_linear_130_343)"/>
<path d="M862.14 157.169C854.05 148.615 850 136.389 850 120.497C850 104.606 854.077 92.3801 862.231 83.8259C870.384 75.2718 881.471 71 895.503 71C909.534 71 920.616 75.2718 928.769 83.8259C936.923 92.3801 941 104.606 941 120.497C941 136.389 936.923 148.615 928.769 157.169C920.616 165.723 909.529 170 895.503 170C881.354 170 870.235 165.723 862.14 157.169ZM915.011 145.884C919.627 140.244 921.935 131.782 921.935 120.497C921.935 109.213 919.627 100.75 915.011 95.1107C910.394 89.4709 903.892 86.6485 895.503 86.6485C886.986 86.6485 880.456 89.4711 875.899 95.1107C871.341 100.75 869.065 109.213 869.065 120.497C869.065 131.782 871.341 140.244 875.899 145.884C880.456 151.524 886.986 154.346 895.503 154.346C903.892 154.346 910.394 151.524 915.011 145.884Z" fill="url(#paint3_linear_130_343)"/>
<path d="M1046.85 90.6737V137.953C1046.85 143.9 1047.8 147.977 1049.69 150.176C1051.59 152.376 1055.26 153.479 1060.71 153.479C1060.94 153.479 1063.55 153.118 1068.52 152.408C1070.18 152.169 1071.19 153.118 1071.54 155.26L1072.96 163.646C1073.2 165.072 1072.37 166.143 1070.47 166.858C1066.69 168.284 1062.01 169 1056.44 169C1046.5 169 1039.42 166.768 1035.22 162.305C1031.02 157.847 1028.92 150.383 1028.92 139.919V90.6738H1017.55C1015.18 90.6738 1014 89.5447 1014 87.2865V78.9005C1014 76.5204 1015.18 75.333 1017.55 75.333H1029.27V53.2123C1029.27 51.0707 1030.34 50 1032.47 50H1043.3C1045.67 50 1046.85 51.0708 1046.85 53.2123V75.333H1068.52C1070.89 75.333 1072.07 76.5204 1072.07 78.9005V87.2865C1072.07 89.5447 1070.89 90.6738 1068.52 90.6738L1046.85 90.6737Z" fill="url(#paint4_linear_130_343)"/>
<path d="M370.717 41H361.146C359.224 41 357.785 41.7193 356.827 43.1686L320.914 101.597C319.867 103.301 317.397 103.301 316.35 101.597L280.443 43.1686C279.484 41.7193 278.045 41 276.123 41H264.054C263.252 41 262.624 41.166 262.077 41.4087C261.989 41.4241 261.911 41.354 261.824 41.3977L250.11 47.3036C248.626 48.0519 248.631 50.1779 250.118 50.9194L259.67 55.6806C260.037 55.8639 260.27 56.24 260.27 56.6517V164.388C260.27 166.798 261.527 168 264.054 168H273.442C276.913 168 279.726 165.179 279.726 161.699V84.2911C279.726 81.5793 283.275 80.5732 284.69 82.8839L315.03 132.412C315.87 133.856 317.075 134.581 318.632 134.581C320.195 134.581 321.394 133.856 322.24 132.412L352.579 82.8839C353.994 80.5732 357.544 81.5793 357.544 84.2911V161.699C357.544 165.179 360.357 168 363.827 168H370.717C374.187 168 377 165.179 377 161.699V47.3008C377 43.8209 374.187 41 370.717 41Z" fill="url(#paint5_linear_130_343)"/>
<path d="M567.773 80.1699C562.288 74.0548 554.06 71 543.085 71C528.3 71 517.984 76.3865 512.143 87.1649L511.606 76.2678C511.606 74.2061 510.474 73.1751 508.204 73.1751H497.118C496.657 73.1751 496.27 73.2544 495.908 73.3606C495.886 73.3698 495.866 73.3469 495.845 73.3579L495.81 73.3759C495.67 73.4214 495.564 73.503 495.439 73.5651L482.607 80.1165C481.795 80.531 481.798 81.7089 482.612 82.1197L493.8 87.7675C493.859 87.7976 493.897 87.8594 493.897 87.927V164.551C493.897 166.85 494.971 168 497.118 168C505.513 168 512.318 161.089 512.318 152.564V112.413C512.318 104.906 514.529 98.9094 518.94 94.4297C523.352 89.9499 529.373 87.7102 537.005 87.7102C544.159 87.7102 549.346 89.4644 552.567 92.978C555.788 96.4916 557.398 101.759 557.398 108.781L557.398 151C557.398 159.325 563.198 166.96 571.34 167.931C574.449 168.302 576 167.175 576 164.551V105.694C576 94.7969 573.258 86.285 567.773 80.1699Z" fill="url(#paint6_linear_130_343)"/>
<path d="M720.597 79.6568C714.327 73.882 704.506 71 691.122 71C677.738 71 666.047 73.3077 656.042 77.9232C654.232 78.7791 653.571 80.0522 654.055 81.7533L656.762 90.5075C657.606 92.6961 658.992 93.422 660.921 92.6961C670.087 88.8065 679.49 86.8617 689.134 86.8617C697.209 86.8617 702.996 88.411 706.494 91.5097C709.991 94.6083 711.738 99.5001 711.738 106.185V110.772C711.743 110.813 711.791 110.827 711.791 110.869V124.678C711.791 124.721 711.743 124.735 711.738 124.775V131.711C711.738 138.64 709.266 144.415 704.323 149.03C699.38 153.651 692.326 155.959 683.165 155.959C677.378 155.959 672.919 154.653 669.786 152.042C666.649 149.425 665.085 146.056 665.085 141.923C665.085 138.277 666.17 135.238 668.336 132.805C670.506 130.373 673.972 128.553 678.737 127.334C683.498 126.12 688.258 125.27 693.019 124.782C696.785 124.397 701.508 124.092 707.115 123.86L696.737 118.659C696.045 118.312 696.043 117.318 696.733 116.968L708.514 110.996C701.681 111.152 695.608 111.454 690.397 111.927C684.374 112.474 678.496 113.476 672.768 114.939C667.041 116.396 662.399 118.249 658.842 120.497C655.29 122.745 652.427 125.784 650.256 129.614C648.085 133.444 647 137.908 647 143.017C647 151.403 649.772 157.995 655.317 162.795C660.862 167.6 668.518 170 678.281 170C694.561 170 705.892 164.588 712.28 153.775L712.64 165.26C712.882 167.324 714.027 168.358 716.079 168.358H726.384C728.797 168.358 730 167.205 730 164.897V105.459C730 94.0283 726.867 85.4316 720.597 79.6568Z" fill="url(#paint7_linear_130_343)"/>
<path d="M1002.18 73.0002C995.018 73.0002 988.909 75.0862 983.863 79.2475C978.811 83.4088 975.288 87.9625 973.289 92.9088L972.938 76.8013C972.938 74.6292 971.76 73.5432 969.415 73.5432H958.49C957.962 73.5432 957.514 73.6208 957.105 73.7368C957.016 73.7515 956.937 73.6803 956.85 73.7253L943.503 80.6171C942.831 80.9642 942.833 81.9511 943.507 82.2952L954.967 88.146V164.565C954.967 166.855 956.14 168 958.49 168H969.944C972.174 168 973.289 166.855 973.289 164.565V122.946C973.289 114.742 975.608 107.532 980.251 101.323C984.888 95.1077 990.615 92.0001 997.426 92.0001C998.368 92.0001 999.305 92.0646 1000.25 92.1828C1001.18 92.3011 1001.83 92.3656 1002.18 92.3656C1004.06 92.3656 1005 91.457 1005 89.6506V75.8978C1005 73.9677 1004.06 73.0002 1002.18 73.0002Z" fill="url(#paint8_linear_130_343)"/>
<path d="M598.691 50.0974L585.497 56.7307C584.832 57.0649 584.835 58.0148 585.501 58.3461L598.695 64.9045C599.295 65.2028 600 64.7662 600 64.0959V50.9042C600 50.232 599.292 49.7955 598.691 50.0974Z" fill="#7733FF"/>
<path d="M1030.6 50.0974L1016.53 56.7307C1015.82 57.0649 1015.82 58.0148 1016.53 58.3461L1030.61 64.9045C1031.25 65.2028 1032 64.7662 1032 64.0959V50.9042C1032 50.232 1031.24 49.7955 1030.6 50.0974Z" fill="#7733FF"/>
<path d="M137 1L102.265 1.01155C75.4297 1.01155 51.1726 11.3545 32.9541 28.1473C32.3712 28.5516 31.7286 29.2979 30.936 30.0201C30.936 30.02 30.936 30.0203 30.936 30.0201C30.0313 30.897 29.0542 31.857 28.2635 32.6365C28.2437 32.6286 28.2239 32.6198 28.2041 32.6116C27.9164 32.9099 27.6468 33.2244 27.3626 33.5261C26.9568 33.928 26.7009 34.1823 26.7009 34.1823L26.7343 34.2098C10.0889 52.234 0 76.3514 0 102.734V129C12.8771 77.928 47.6995 19.919 137 1Z" fill="url(#paint9_linear_130_343)"/>
<path d="M87 211H112.632C134.967 211 155.563 203.681 172.309 191.389L172.346 191.433C175.513 189.331 178.749 186.472 181.487 183.814C181.624 183.686 181.769 183.565 181.906 183.437C181.899 183.434 181.892 183.43 181.885 183.427C183.438 181.903 184.803 180.473 185.885 179.302C185.894 179.305 185.901 179.309 185.909 179.312C203.371 161.059 214 136.185 214 108.917V77C202.133 129.057 170.111 190.337 87 211Z" fill="url(#paint10_linear_130_343)"/>
<path d="M210.989 41.4792C210.985 41.5386 210.978 41.5973 210.974 41.6567L210.922 25.6158C210.941 25.7234 210.971 25.8265 210.989 25.9346V4.06962H209.78L209.865 4L166.554 4.01472C111.776 9.31207 69.7952 28.5603 41.5924 61.5458C17.0551 90.2444 6.87403 124.985 3 153.975V207.998H50.8738C50.8693 207.999 50.8655 207.999 50.861 208H62.4049C107.025 202.026 142.356 184.697 167.661 156.175C196.598 123.559 207.332 81.8656 211 49.581L210.988 45.9343L210.989 41.4792ZM167.123 128.302C167.123 139.025 162.706 148.658 155.545 155.554C153.479 157.343 150.886 159.056 149.202 160.105L149.198 160.1C143.278 163.875 136.306 166.131 128.787 166.131H76.4842C76.4745 166.147 76.4635 166.163 76.4538 166.18H72.453C72.4627 166.164 72.4737 166.148 72.4834 166.132H46.8652V83.7681C46.8652 73.2059 51.1543 63.7024 58.126 56.8291C60.8274 54.3241 63.0644 52.8836 63.0644 52.8836C69.2493 48.5578 76.6658 45.906 84.7169 45.906H123.963L123.961 45.9088L141.516 45.9203C141.512 45.9262 141.508 45.9318 141.504 45.9376H167.123L167.123 128.302Z" fill="url(#paint11_linear_130_343)"/>
</g>
<defs>
<linearGradient id="paint0_linear_130_343" x1="435.5" y1="71" x2="435.5" y2="170" gradientUnits="userSpaceOnUse">
<stop stop-color="#7733FF"/>
<stop offset="1" stop-color="#2C0175"/>
</linearGradient>
<linearGradient id="paint1_linear_130_343" x1="613.5" y1="50" x2="613.5" y2="169" gradientUnits="userSpaceOnUse">
<stop stop-color="#7733FF"/>
<stop offset="1" stop-color="#2C0175"/>
</linearGradient>
<linearGradient id="paint2_linear_130_343" x1="787" y1="71" x2="787" y2="188" gradientUnits="userSpaceOnUse">
<stop stop-color="#7733FF"/>
<stop offset="1" stop-color="#2C0175"/>
</linearGradient>
<linearGradient id="paint3_linear_130_343" x1="895.5" y1="71" x2="895.5" y2="170" gradientUnits="userSpaceOnUse">
<stop stop-color="#7733FF"/>
<stop offset="1" stop-color="#2C0175"/>
</linearGradient>
<linearGradient id="paint4_linear_130_343" x1="1043.5" y1="50" x2="1043.5" y2="169" gradientUnits="userSpaceOnUse">
<stop stop-color="#7733FF"/>
<stop offset="1" stop-color="#2C0175"/>
</linearGradient>
<linearGradient id="paint5_linear_130_343" x1="313" y1="41" x2="313" y2="168" gradientUnits="userSpaceOnUse">
<stop stop-color="#7733FF"/>
<stop offset="1" stop-color="#2C0175"/>
</linearGradient>
<linearGradient id="paint6_linear_130_343" x1="529" y1="71" x2="529" y2="168" gradientUnits="userSpaceOnUse">
<stop stop-color="#7733FF"/>
<stop offset="1" stop-color="#2C0175"/>
</linearGradient>
<linearGradient id="paint7_linear_130_343" x1="688.5" y1="71" x2="688.5" y2="170" gradientUnits="userSpaceOnUse">
<stop stop-color="#7733FF"/>
<stop offset="1" stop-color="#2C0175"/>
</linearGradient>
<linearGradient id="paint8_linear_130_343" x1="974" y1="73" x2="974" y2="168" gradientUnits="userSpaceOnUse">
<stop stop-color="#7733FF"/>
<stop offset="1" stop-color="#2C0175"/>
</linearGradient>
<linearGradient id="paint9_linear_130_343" x1="0" y1="65" x2="137" y2="65" gradientUnits="userSpaceOnUse">
<stop stop-color="#250670"/>
<stop offset="1" stop-color="#6E40F7"/>
</linearGradient>
<linearGradient id="paint10_linear_130_343" x1="87" y1="144" x2="214" y2="144" gradientUnits="userSpaceOnUse">
<stop stop-color="#250670"/>
<stop offset="1" stop-color="#6E40F7"/>
</linearGradient>
<linearGradient id="paint11_linear_130_343" x1="3" y1="106" x2="211" y2="106" gradientUnits="userSpaceOnUse">
<stop stop-color="#250670"/>
<stop offset="1" stop-color="#6E40F7"/>
</linearGradient>
<clipPath id="clip0_130_343">
<rect width="1080" height="210" fill="white"/>
</clipPath>
</defs>
</svg>
