<svg version="1.1" id="Layer_1" xmlns="http://www.w3.org/2000/svg" xmlns:xlink="http://www.w3.org/1999/xlink" x="0px" y="0px"
	 width="100%" viewBox="0 0 190 184" enable-background="new 0 0 190 184" xml:space="preserve">
<path fill="#8F85F3" opacity="1.000000" stroke="none" 
	d="
M25.313576,184.722458 
	C17.838640,185.000000 10.674958,184.898605 3.517356,185.062576 
	C1.406032,185.110962 0.935663,184.691132 0.938465,182.519547 
	C1.015380,122.897171 1.026400,63.274620 0.912455,3.652358 
	C0.907409,1.012140 1.764690,0.956792 3.843771,0.958522 
	C65.298180,1.009652 126.752655,1.013905 188.207031,0.944174 
	C190.437729,0.941643 191.079514,1.224793 191.075470,3.703147 
	C190.978531,63.158924 190.977005,122.614937 191.075394,182.070709 
	C191.079819,184.738693 190.275208,185.162033 187.931183,185.051682 
	C183.942947,184.863968 179.939468,185.000000 175.471191,185.000000 
	C171.435165,182.909882 170.918671,179.106644 170.055405,175.663345 
	C167.201019,164.278000 164.320892,152.898926 161.387512,141.117416 
	C161.219910,138.534363 159.330109,136.866531 159.582428,134.198212 
	C161.118713,128.966125 164.445190,125.108437 166.661148,120.637337 
	C181.107361,91.489365 175.897095,59.104027 153.243362,35.900375 
	C135.567184,17.795132 113.846764,9.883201 89.131691,11.460888 
	C53.003426,13.767138 23.761517,37.696075 15.669290,72.918388 
	C10.201138,96.719124 17.827839,116.920837 32.182980,135.361191 
	C33.930973,137.606644 35.722244,139.745010 36.966911,142.762421 
	C37.365879,146.508789 36.415146,149.703369 35.629436,152.881714 
	C33.533657,161.359589 31.264050,169.794601 29.314236,178.309036 
	C28.752268,180.763031 28.048016,183.115448 25.313576,184.722458 
z"/>
<path fill="#474347" opacity="1.000000" stroke="none" 
	d="
M160.692123,134.277618 
	C161.423080,136.208878 162.065170,137.804855 162.782867,139.719620 
	C162.370621,140.961334 161.518005,141.255493 160.217346,141.362061 
	C159.651413,141.303101 159.429764,141.252838 158.897949,141.068588 
	C158.213455,140.704529 157.862030,140.444138 157.317444,139.926804 
	C156.963562,139.555267 156.832397,139.401459 156.521439,139.015701 
	C156.003799,138.329315 155.622818,137.919556 154.889038,137.463074 
	C153.998459,136.835068 153.468353,136.247406 152.757660,135.420135 
	C152.219589,134.728989 151.906860,134.237930 151.197769,133.700043 
	C150.778076,133.409164 150.611786,133.285660 150.206299,132.957413 
	C148.096893,130.524261 145.745300,129.983826 142.669891,130.822662 
	C136.083527,130.347107 130.590073,127.348099 124.760643,125.476639 
	C121.642502,124.475594 119.088600,124.835846 116.272614,126.471878 
	C105.482735,132.740570 94.575012,132.907547 83.708496,126.533714 
	C83.421524,126.365372 83.112473,126.228966 82.842659,126.039459 
	C80.399307,124.323326 77.887398,124.288757 75.359573,125.790527 
	C74.369751,126.378578 74.069382,127.386894 74.591225,128.381302 
	C75.985878,131.038895 77.297989,133.774536 81.035439,133.759857 
	C86.060127,133.740128 90.902962,134.674042 95.597656,136.583542 
	C104.389030,140.159286 110.626579,146.384628 114.072044,155.068939 
	C115.867470,159.594315 118.144882,163.290009 122.366806,165.782349 
	C124.953407,167.309311 127.208992,169.290665 129.192230,172.046463 
	C130.078308,173.533417 130.026718,175.012497 131.040253,176.428528 
	C131.278793,176.928665 131.352921,177.136826 131.503723,177.663116 
	C132.005234,179.199036 132.475464,180.396515 133.349319,181.764282 
	C133.633209,182.229553 133.723053,182.430725 133.857666,182.960785 
	C133.855927,183.736450 133.707108,184.146057 133.227875,184.759186 
	C131.285645,185.000000 129.571289,185.000000 127.428467,185.000000 
	C126.534286,184.529892 126.065598,184.062302 125.616119,183.186676 
	C125.377411,182.492325 125.230507,182.105774 124.910843,181.474518 
	C124.524544,180.916000 124.306396,180.600037 123.944740,180.044861 
	C123.674767,179.667755 123.565239,179.518280 123.285675,179.149445 
	C122.881088,178.639328 122.645454,178.349411 122.204666,177.852478 
	C121.483208,177.057404 120.982162,176.455429 120.211823,175.702408 
	C119.599762,175.096497 119.239471,174.654495 118.579453,174.120636 
	C118.202400,173.847412 118.051659,173.738190 117.675430,173.464661 
	C117.300522,173.189758 117.151100,173.079193 116.779366,172.800507 
	C116.410019,172.518967 116.262970,172.405533 115.897125,172.121613 
	C115.387024,171.724136 115.095093,171.497955 114.557518,171.125443 
	C114.146881,170.876465 113.981224,170.774658 113.566879,170.512268 
	C112.984070,170.123169 112.659294,169.882050 112.090607,169.437103 
	C111.516022,168.959808 111.218872,168.650574 110.736893,168.065186 
	C110.042618,167.091293 109.718544,166.280365 109.081802,165.272827 
	C108.822281,164.800354 108.734726,164.604004 108.569626,164.099670 
	C108.238014,162.812866 108.040222,161.816528 107.417763,160.656708 
	C107.135948,160.248947 107.027977,160.082718 106.777954,159.657486 
	C106.383247,158.884308 106.177109,158.347702 105.731750,157.615128 
	C105.472046,157.220734 105.369392,157.061996 105.116508,156.663177 
	C104.770226,156.100281 104.579872,155.774170 104.236588,155.204666 
	C103.878517,154.635239 103.691170,154.299133 103.368454,153.706024 
	C102.857597,152.779892 102.483627,152.111343 101.701065,151.351303 
	C101.202232,150.801361 100.966431,150.444077 100.644669,149.754913 
	C99.544258,146.167633 96.935234,145.105972 93.581642,144.548218 
	C93.016708,144.453461 92.792030,144.405182 92.251038,144.220917 
	C88.891190,143.025208 86.038918,140.510406 82.604477,143.115067 
	C82.723427,143.552841 82.786339,143.726730 82.964600,144.162552 
	C83.161842,144.602844 83.243721,144.781204 83.445663,145.236359 
	C83.638954,145.704559 83.712196,145.895996 83.880745,146.382126 
	C84.209465,147.458511 84.309540,148.293045 85.051529,149.231842 
	C85.310829,149.736130 85.392723,149.952133 85.558723,150.509003 
	C86.021149,153.334381 87.638550,155.273987 88.587555,157.509338 
	C89.815102,160.400787 90.076172,163.147537 87.685722,166.019531 
	C87.291710,166.478378 87.115448,166.643112 86.634125,166.994690 
	C83.360619,167.650253 80.816025,169.012802 78.300629,171.160309 
	C77.912270,171.588013 77.737511,171.742767 77.250908,172.060608 
	C75.031860,172.614944 73.207329,172.610474 71.435059,170.914215 
	C70.997116,170.577942 70.815811,170.454880 70.377426,170.132294 
	C69.822876,169.632645 69.546249,169.314590 69.112625,168.734009 
	C68.815453,168.332245 68.702446,168.169724 68.429962,167.761597 
	C68.168182,167.352005 68.065872,167.188034 67.813309,166.777313 
	C67.565163,166.364410 67.467270,166.198242 67.228676,165.777817 
	C67.001579,165.348816 66.915199,165.174103 66.718048,164.727005 
	C66.547813,164.267838 66.488358,164.081039 66.342361,163.614563 
	C66.033653,162.592026 65.837090,161.836899 65.076569,161.006470 
	C64.797104,160.556152 64.703789,160.362213 64.533150,159.852341 
	C63.647594,156.644699 62.423504,154.113007 58.782410,153.256744 
	C56.891052,152.341110 56.627827,150.825546 56.185154,148.987000 
	C55.865120,148.184570 55.715443,147.720840 55.565117,146.893555 
	C55.561329,144.362350 55.425262,142.250244 53.060360,140.703354 
	C51.479053,139.332413 50.543598,137.880234 49.646523,136.078003 
	C49.527458,135.841797 49.340759,135.423737 49.129936,135.147369 
	C48.919109,134.871002 48.566196,134.819534 48.363590,134.859451 
	C47.469406,135.095428 46.768898,135.241409 45.712200,135.247955 
	C44.463421,134.942001 43.635792,134.499390 42.634186,133.659302 
	C42.146717,132.950790 41.791599,132.350723 42.002041,132.000504 
	C45.236382,126.617851 41.676960,122.692398 39.190578,118.526070 
	C37.893669,116.352882 36.454376,114.465401 33.726295,113.875557 
	C30.337015,113.142746 28.290403,110.245064 25.275829,108.207031 
	C23.756292,107.042183 22.666208,106.005516 22.363567,103.985992 
	C22.272038,99.389381 20.996027,96.364334 16.157497,95.536171 
	C13.528031,95.086113 12.283252,92.652382 13.269251,90.158363 
	C14.319590,87.501610 14.168158,85.059265 13.567684,82.443085 
	C13.178749,80.748558 13.906315,79.217812 14.591862,77.693695 
	C15.874504,74.842117 17.528797,72.191811 18.722868,69.272179 
	C20.363819,65.259872 23.992535,64.114151 28.056971,63.999958 
	C30.072439,63.943336 31.984404,64.452583 34.268543,64.974304 
	C36.308319,66.226059 38.182114,66.537987 40.526863,66.267426 
	C44.096443,66.390007 46.619720,68.592613 49.771713,69.165054 
	C51.946064,69.559944 52.895489,71.849663 52.400970,73.946365 
	C51.198708,79.043831 52.473236,82.252991 57.976921,83.541992 
	C60.586662,84.153214 61.385773,86.406715 60.624935,89.120682 
	C57.853786,99.005562 60.885220,107.530952 66.783829,115.426491 
	C68.307098,117.465439 70.114639,117.290665 72.115356,116.739021 
	C74.503632,116.080521 76.536858,114.902336 76.650841,112.126465 
	C76.893562,106.216003 77.891472,100.245155 72.317535,95.608459 
	C69.632904,93.375237 68.383675,89.853600 69.323692,85.733215 
	C69.630783,84.582870 69.980644,83.791962 70.086952,82.598694 
	C70.213120,81.823051 70.315506,81.378342 70.462799,80.574387 
	C70.380127,78.178230 71.975334,77.052650 73.222824,75.316887 
	C74.135101,74.565598 74.855156,74.286285 75.997955,74.079544 
	C82.125793,75.113327 89.575974,72.077148 92.723167,67.086365 
	C95.407730,63.338654 99.214325,62.502689 103.440224,61.761253 
	C104.865891,62.113461 105.693916,62.712761 106.491302,63.918327 
	C107.121597,67.827728 103.028633,67.653465 101.791771,70.266716 
	C101.500549,70.774460 101.390503,70.982788 101.081383,71.482681 
	C99.124290,76.291924 98.988716,81.423836 95.632568,85.743073 
	C95.201706,86.848122 94.691902,87.434494 93.676315,88.078278 
	C91.456093,88.597145 89.629951,88.594803 87.543488,87.585861 
	C85.315979,86.766838 84.565460,84.861542 82.884262,83.503998 
	C82.024338,82.933136 81.413895,82.549286 80.463806,83.265282 
	C77.879158,87.454819 78.308571,89.445473 82.357086,91.813675 
	C84.697762,93.182869 87.005554,94.411232 86.932297,97.941254 
	C86.599442,98.985718 86.075432,99.486069 85.353844,100.280899 
	C82.490524,105.443130 83.064034,110.450951 84.796829,115.786102 
	C85.097404,116.288132 85.205086,116.495819 85.425644,117.034050 
	C87.824577,121.292091 95.725319,125.316536 100.363998,124.295670 
	C103.860619,123.526154 107.580658,123.153275 110.966827,120.860023 
	C111.382668,120.488403 111.539932,120.330231 111.940460,119.944427 
	C112.703194,119.294060 113.161926,118.814781 113.729553,117.975235 
	C114.203430,117.317162 114.501343,116.955368 115.031937,116.313126 
	C115.598793,115.467926 115.940498,114.908623 116.114120,114.270805 
	C117.624420,108.722664 120.036804,107.144501 126.348991,108.019836 
	C127.089188,109.255363 127.020035,110.214638 126.601837,111.170418 
	C124.601257,115.742691 124.607956,115.717514 129.541580,117.264557 
	C136.169647,119.342934 142.796036,121.463936 149.268311,123.962013 
	C154.149918,125.846138 159.229065,127.898399 160.692123,134.277618 
z"/>
<path fill="#41434C" opacity="1.000000" stroke="none" 
	d="
M41.859928,132.150177 
	C43.271816,132.701172 44.355816,133.211426 45.847183,133.911072 
	C47.017357,135.420181 46.613731,136.690628 46.012291,137.900284 
	C40.028080,149.936172 38.651115,163.305435 34.952896,176.002029 
	C34.005352,179.255127 35.200310,180.768295 38.530006,180.733124 
	C39.027927,180.727875 39.526546,180.749374 40.024761,180.761002 
	C49.836094,180.989899 49.625656,181.018723 48.313877,171.339264 
	C47.672234,166.604614 48.109959,161.764420 51.023438,157.210220 
	C51.545475,156.856354 51.775894,156.746628 52.387756,156.587936 
	C53.567242,156.677658 54.152462,157.156372 54.929108,158.015854 
	C55.619366,158.920074 56.096695,159.508163 56.850807,160.362030 
	C57.157520,160.918350 57.250080,161.156662 57.422020,161.770447 
	C57.551659,162.651398 57.528904,163.153412 57.329201,164.005188 
	C53.359444,170.245483 56.751278,175.289963 59.331383,180.729248 
	C59.691441,181.212982 59.816196,181.423370 60.039394,181.991699 
	C60.194233,183.128265 59.992577,183.827118 59.246784,184.717041 
	C47.979103,185.000000 36.958210,185.000000 25.468658,185.000000 
	C28.964876,171.580917 32.212490,157.980530 35.179008,143.965363 
	C35.720676,140.079193 34.899902,136.063904 38.772064,133.328033 
	C39.428379,132.843872 39.829514,132.618057 40.565834,132.319275 
	C41.096115,132.173141 41.314075,132.141281 41.859928,132.150177 
z"/>
<path fill="#54403E" opacity="1.000000" stroke="none" 
	d="
M59.468658,185.000000 
	C59.051975,184.205368 59.103958,183.410736 59.220207,182.223022 
	C62.437317,179.435120 66.044548,180.874268 69.400490,180.843933 
	C73.836266,180.803833 76.935020,180.059494 79.506691,175.584427 
	C84.486313,166.919189 96.718506,167.109222 101.700798,175.859253 
	C104.030952,179.951523 106.829903,180.757217 110.942940,180.821991 
	C116.035423,180.902176 121.238281,179.799683 126.541641,182.022308 
	C126.905739,182.956833 126.949432,183.637283 126.996567,184.658875 
	C104.645775,185.000000 82.291542,185.000000 59.468658,185.000000 
z"/>
<path fill="#40434E" opacity="1.000000" stroke="none" 
	d="
M133.468658,185.000000 
	C133.144150,184.408768 133.288284,183.817551 133.580688,182.794434 
	C135.359222,180.384720 137.670898,180.829666 139.770462,180.785767 
	C146.598511,180.643005 153.430756,180.830093 160.258682,180.690460 
	C165.220016,180.589005 166.080826,179.679138 164.704285,174.964706 
	C162.275711,166.647324 160.892609,158.079330 158.354218,149.789078 
	C157.511139,147.035706 156.023636,144.115570 158.153564,140.835510 
	C159.614166,140.378128 160.789398,140.209915 162.411560,140.040070 
	C167.120865,152.817673 169.512695,166.089172 173.124619,179.039474 
	C173.615753,180.800369 174.156433,182.547440 174.837082,184.650452 
	C161.312439,185.000000 147.624878,185.000000 133.468658,185.000000 
z"/>
<path fill="#B0A9F4" opacity="1.000000" stroke="none" 
	d="
M41.169140,133.667206 
	C37.737350,136.034149 37.238281,139.856750 35.359070,143.336395 
	C34.273617,138.911499 29.971415,136.791260 27.443289,133.375290 
	C4.199100,101.968040 7.434284,61.397739 35.008404,33.304890 
	C63.998184,3.769747 113.689857,0.470019 147.209808,26.975163 
	C181.021454,53.710941 186.728729,99.107544 160.949066,134.268829 
	C151.667145,124.577026 138.347580,123.618225 126.783600,118.872269 
	C125.871017,118.497726 124.918945,118.202515 123.963768,117.952339 
	C122.249580,117.503365 120.897392,116.877365 120.933388,114.696007 
	C120.965294,112.761848 122.107941,112.229172 123.665794,111.776901 
	C124.579674,111.511581 125.373863,110.833977 126.401451,110.084663 
	C126.244728,108.339035 127.034676,107.098816 127.618736,105.440033 
	C128.732681,103.895180 129.658234,102.671860 129.730347,100.608673 
	C131.220459,90.798271 130.228149,81.336571 130.478378,71.904144 
	C130.605820,67.099709 130.492249,62.289268 130.512527,57.083649 
	C130.624252,51.801643 134.672363,48.446865 135.500351,43.844585 
	C135.752304,42.444038 137.154816,40.953098 135.944183,39.669327 
	C134.867661,38.527767 133.413147,39.735600 132.235062,40.094109 
	C127.960281,41.394985 124.740829,39.856571 122.153282,36.593559 
	C118.016441,31.376812 113.109695,26.902304 108.490379,22.148001 
	C105.654152,19.228891 102.948578,18.730150 99.268333,21.057285 
	C91.856392,25.744089 84.271027,30.165464 76.783157,34.737923 
	C72.326698,37.459251 68.297462,40.628052 67.493454,46.685581 
	C67.456581,47.273949 67.436287,47.509857 67.346939,48.095909 
	C67.023834,49.389183 66.973724,50.336945 67.293716,51.646187 
	C67.437469,52.480564 67.475662,52.961945 67.485817,53.805283 
	C67.140327,56.825138 67.750076,59.442333 68.217697,61.990112 
	C69.161659,67.133133 67.428604,70.643204 62.564529,72.979645 
	C62.370476,73.144302 62.112972,73.499222 62.068810,73.692444 
	C62.024647,73.885658 62.114712,74.267120 62.233383,74.449455 
	C62.352051,74.631790 62.676022,75.001488 62.874420,75.182419 
	C65.779724,77.294144 69.808479,77.096725 71.724991,80.903549 
	C71.915436,81.589890 71.909958,81.988228 71.920494,82.685265 
	C72.026520,83.558884 71.950531,84.093811 71.394295,84.779816 
	C70.307663,89.774117 72.077766,93.592339 75.904442,96.201347 
	C78.299599,97.834335 79.083206,99.660683 78.914909,102.398720 
	C78.721718,105.541779 78.505875,108.759262 78.958725,111.847809 
	C79.582443,116.101784 77.457283,117.462318 73.933884,118.835243 
	C68.900719,120.796440 65.626343,120.158585 63.470215,114.850784 
	C62.295959,111.960083 60.436176,109.334015 58.768570,106.661613 
	C57.218311,104.177254 56.038860,101.819389 57.762451,98.837105 
	C58.726505,97.169022 58.260872,95.260338 57.295696,93.600319 
	C56.176502,91.675392 55.752655,89.995514 58.185112,88.650818 
	C59.003632,88.198326 59.798950,87.271667 59.207233,86.167084 
	C58.602406,85.038025 57.542671,84.473343 56.268787,85.034859 
	C50.922997,87.391220 51.593300,81.914253 49.684502,79.903412 
	C48.071892,78.204605 47.252903,76.276825 50.281044,74.773453 
	C51.404358,74.215759 51.414181,72.810509 50.773399,71.674484 
	C50.332157,70.892212 49.367516,70.282478 48.705242,70.773468 
	C44.903030,73.592293 44.021770,69.622360 41.813805,67.940979 
	C39.348972,66.964478 37.044807,67.009926 34.448452,66.949326 
	C33.013615,66.815567 31.913073,66.501175 30.790672,66.330559 
	C23.723372,65.256210 20.611221,66.968422 20.054605,72.606995 
	C19.885792,74.317093 18.905508,75.200745 17.923832,76.305992 
	C16.235050,78.207344 14.777078,80.426773 15.764112,83.030464 
	C16.866173,85.937576 18.781967,88.671494 14.635159,90.763039 
	C14.040325,91.063065 14.144494,91.927887 14.571327,92.538094 
	C15.322235,93.611618 16.342306,93.818810 17.611980,93.683075 
	C21.984850,93.215622 25.712975,98.389946 24.175516,103.389458 
	C22.864618,105.492218 23.219687,106.619331 25.671738,107.000061 
	C26.933565,107.010139 28.078079,106.157013 28.761709,107.168312 
	C30.903360,110.336487 33.517311,112.456551 37.587322,112.590797 
	C38.375607,112.616798 39.265186,114.049103 39.846478,114.993668 
	C41.310993,117.373444 42.306183,120.112770 44.070427,122.222084 
	C47.365276,126.161423 46.606960,129.066803 42.372379,131.912323 
	C42.187817,132.190918 42.062492,132.213928 42.064224,132.277618 
	C43.012733,133.248520 42.033497,133.384811 41.169140,133.667206 
z"/>
<path fill="#339FFD" opacity="1.000000" stroke="none" 
	d="
M158.417679,140.477966 
	C161.662155,153.264938 164.759918,166.017517 168.190353,178.679977 
	C169.134857,182.166336 168.362717,183.085114 164.899689,183.013763 
	C154.765457,182.805023 144.626648,182.819244 134.109283,182.554337 
	C133.728928,182.362564 133.703766,182.252625 133.647430,182.255081 
	C131.079330,182.040253 131.860947,179.506592 130.742126,177.932220 
	C130.693802,177.588821 130.689072,177.520599 130.658737,177.504822 
	C128.521713,177.544220 129.691849,175.135208 128.221741,174.269440 
	C125.878914,170.666641 122.709007,168.429184 119.409744,166.573395 
	C115.952271,164.628632 114.088310,161.876572 112.829979,158.243286 
	C107.924843,144.080261 95.471275,135.596832 80.683136,136.125732 
	C77.034218,136.256241 70.429260,129.621185 70.469299,125.969963 
	C70.479095,125.076294 71.030167,124.720505 71.567612,124.534775 
	C75.659584,123.120651 79.269524,120.622116 84.120865,123.887222 
	C94.518158,130.884918 105.477325,130.392822 116.010597,123.860855 
	C118.684410,122.202751 120.852898,121.672966 123.837776,122.782478 
	C129.911118,125.040009 136.121643,126.928490 142.661942,128.986511 
	C146.141357,129.133667 148.830414,130.520050 151.641815,132.117615 
	C151.712051,132.490906 151.627396,132.422638 151.599609,132.469376 
	C152.601395,132.334457 153.003967,133.199371 153.733856,134.022705 
	C154.316696,134.840851 154.770157,135.370148 155.459930,136.016907 
	C156.527954,136.434769 156.990723,137.112015 157.353577,138.124588 
	C157.286392,138.426453 157.285065,138.500458 157.316772,138.519531 
	C158.578217,137.944229 158.343460,139.035263 158.543640,139.967255 
	C158.519547,140.336472 158.396423,140.409592 158.417679,140.477966 
z"/>
<path fill="#F0B499" opacity="1.000000" stroke="none" 
	d="
M83.307770,81.014259 
	C84.737907,82.539215 86.207832,83.503670 86.982422,85.485947 
	C88.683708,87.842766 90.765823,87.833954 93.253883,86.837677 
	C93.474480,86.310028 93.406769,86.048698 93.435638,85.798523 
	C93.450195,85.672409 93.639847,85.566498 93.885544,85.262207 
	C99.081276,81.483818 98.809273,75.834442 99.922699,70.371841 
	C100.233154,70.143295 100.148125,70.134697 100.148216,70.177429 
	C105.216003,66.407532 110.630486,63.256077 117.193893,61.447117 
	C125.392197,59.313015 126.942123,58.891926 126.588226,68.781654 
	C126.268967,77.703110 126.433258,86.650833 126.528214,95.585747 
	C126.562218,98.786354 126.211311,101.858360 124.714149,105.168686 
	C124.396339,105.783791 124.266869,106.022713 123.864632,106.550644 
	C122.180779,107.905228 120.230171,107.403603 118.536415,108.669296 
	C117.905388,109.149971 117.573845,109.456245 117.039734,110.029984 
	C114.967033,112.853821 115.965782,116.365822 113.924774,119.224686 
	C113.684341,119.964569 113.423203,120.318176 112.785049,120.489235 
	C112.477966,120.357132 112.424469,120.326645 112.398331,120.342918 
	C112.702766,121.023170 112.513855,121.469009 111.366898,121.786270 
	C105.536171,122.219482 100.334236,124.268318 94.734741,122.824974 
	C85.668037,120.487892 83.772064,116.790787 84.473701,110.358971 
	C84.916840,106.296730 83.662064,102.063499 85.705467,97.705658 
	C84.569740,95.320992 82.689720,94.531776 80.762642,93.559334 
	C75.254890,90.779999 74.627419,86.001549 79.233582,81.626770 
	C80.433052,79.754387 81.918137,80.765274 83.307770,81.014259 
z"/>
<path fill="#F6A208" opacity="1.000000" stroke="none" 
	d="
M126.861191,181.927628 
	C119.417625,183.519989 111.920036,182.576004 104.451164,182.817841 
	C102.084015,182.894501 101.577980,181.231049 100.940712,179.364731 
	C99.285187,174.516312 96.007980,171.493515 90.634834,171.464874 
	C85.489342,171.437454 82.169655,174.065140 80.103531,179.724304 
	C79.580025,181.158218 79.353729,182.846603 77.411247,182.775513 
	C71.624588,182.563736 65.775543,183.722839 59.669468,181.929535 
	C59.284477,181.829956 59.257629,181.767120 59.223480,181.766083 
	C55.003880,176.738754 54.385384,170.913925 55.589794,164.352341 
	C55.912491,163.547424 56.020874,163.119156 56.113213,162.358398 
	C56.802094,161.084061 55.910583,160.312210 55.831558,159.102936 
	C56.441013,156.948639 56.950287,155.094727 58.859131,153.646576 
	C59.368782,153.339905 59.590088,153.248138 60.166656,153.104065 
	C63.945011,153.816818 64.295975,156.994873 65.687202,159.791168 
	C65.819366,160.122665 65.843224,160.150238 65.834915,160.166473 
	C67.118271,160.842896 67.355560,162.084412 67.789764,163.562515 
	C68.012222,163.785034 67.992615,163.959839 68.071487,163.998749 
	C68.283501,164.211472 68.416641,164.385269 68.733231,164.831482 
	C68.916664,165.103867 68.951790,165.026047 68.914436,165.046722 
	C69.440292,165.405579 69.483658,166.003860 69.752541,166.813141 
	C69.883743,167.071320 69.993851,167.015533 69.937973,167.046661 
	C70.450783,167.412567 70.482826,168.017975 70.770828,168.818817 
	C70.909836,169.073242 70.979187,169.069153 70.943909,169.081024 
	C72.318153,170.884003 73.988007,172.059097 76.674850,171.220581 
	C76.926567,171.017853 77.009087,171.033951 77.017853,170.992828 
	C79.412659,168.756042 82.042130,167.006668 85.555893,166.189270 
	C85.799301,165.946243 85.926102,165.989334 85.947174,165.925781 
	C89.944344,163.615036 89.610832,160.655731 87.644646,157.160309 
	C86.454697,155.044846 84.528740,153.243103 84.241577,150.296463 
	C84.054352,150.009766 84.072899,149.957413 84.046875,149.947739 
	C83.154381,149.292252 82.801537,148.312653 82.229523,147.111176 
	C82.095200,146.834167 81.968040,146.365158 81.835335,146.161621 
	C81.611359,145.775375 81.520096,145.592636 81.252266,145.159515 
	C81.075706,144.909119 81.098633,144.974121 81.100647,144.938812 
	C79.536461,142.400375 80.698608,141.220016 83.183472,141.092896 
	C86.250557,140.935989 89.294365,141.297623 92.540787,142.827423 
	C92.919220,143.104401 92.938988,143.022842 92.939308,143.063080 
	C96.544228,143.786026 99.273117,145.828384 101.694931,148.925293 
	C101.939064,149.531448 102.100441,149.774521 102.564362,150.039856 
	C103.843582,150.555664 104.121826,151.595352 104.785995,152.725677 
	C105.044220,153.293381 105.188538,153.585159 105.629257,153.963470 
	C106.421921,154.403275 106.483704,154.994034 106.766960,155.792953 
	C106.913322,156.041519 106.964989,156.030731 106.947556,156.050568 
	C107.764969,156.679077 107.388725,157.618271 107.745293,158.669617 
	C107.923027,158.933258 107.870193,159.043198 107.923798,159.072311 
	C109.387474,160.221237 109.526299,161.807755 109.732262,163.729950 
	C109.897888,164.029480 109.877769,164.071335 109.894646,164.087280 
	C110.697136,164.774658 111.102135,165.711563 111.798828,166.814011 
	C112.032036,167.397919 112.198380,167.667908 112.692497,167.966309 
	C113.407143,168.452881 114.044174,168.481094 114.738480,168.996185 
	C114.883575,169.263321 114.861946,169.189148 114.829239,169.209717 
	C115.503693,169.342758 116.048599,169.735382 116.758026,170.490601 
	C116.984589,170.746078 117.294289,171.045502 117.502159,171.101929 
	C118.048737,171.234177 118.352806,171.380081 118.814194,171.771515 
	C119.011444,171.936325 119.003578,171.996231 119.031738,171.985306 
	C119.507797,172.417267 120.071068,172.717499 120.751900,173.370529 
	C121.992996,174.641556 123.004074,175.698837 124.299629,176.987518 
	C124.584106,177.218933 124.582451,177.593185 124.763321,177.641190 
	C124.944183,177.689194 125.009056,177.918716 125.118866,177.965271 
	C125.765938,178.454987 126.262413,178.934662 126.740211,179.870819 
	C126.869781,180.653275 126.865067,181.116074 126.861191,181.927628 
z"/>
<path fill="#47454C" opacity="1.000000" stroke="none" 
	d="
M65.156418,52.201210 
	C64.894028,50.921741 64.822777,49.844769 64.873291,48.377983 
	C65.131432,47.842339 65.267807,47.696503 65.247063,47.295685 
	C65.459244,42.042992 67.972710,38.167393 72.018860,35.559895 
	C81.210426,29.636490 90.532639,23.910067 99.907837,18.280239 
	C103.583809,16.072807 106.960129,17.335838 109.763611,20.260771 
	C114.583504,25.289457 119.557945,30.191034 124.076271,35.480198 
	C126.991310,38.892551 129.638382,40.136600 133.689117,37.437027 
	C135.129303,36.477219 137.129623,34.706715 139.031677,36.757401 
	C140.615707,38.465210 139.149399,40.265610 138.496552,41.840111 
	C136.689697,46.197865 136.064545,51.132278 132.141846,54.812801 
	C131.511307,55.336185 131.173187,55.666367 130.520538,56.175339 
	C129.123428,56.836700 128.096024,57.519764 126.464218,57.492683 
	C125.112091,57.521328 124.135651,57.911228 122.820221,57.380341 
	C122.170929,56.796989 121.913887,56.373699 121.688095,55.540382 
	C121.508453,52.020691 124.000977,50.794025 126.167336,49.166203 
	C124.321953,48.871819 122.539017,49.825420 120.531662,48.759510 
	C119.154778,47.715000 118.623421,46.599545 118.576080,44.872288 
	C119.454880,41.284988 118.466499,38.794186 115.999084,36.546333 
	C112.806160,33.637524 109.790718,30.524933 106.779541,27.423008 
	C104.624832,25.203358 102.667641,24.754799 99.780296,26.470888 
	C91.924080,31.140223 84.196739,36.011787 76.501907,40.931644 
	C72.884605,43.244450 71.044952,46.960701 71.439651,51.158428 
	C71.808693,55.083313 71.938042,59.139645 73.713745,63.188972 
	C74.824516,65.376335 76.741997,66.866196 76.101540,69.684143 
	C75.132103,71.764122 73.008995,73.024666 73.986687,75.793076 
	C73.365738,77.597092 72.718964,79.055450 71.996552,80.852684 
	C68.184830,79.765526 64.448738,78.339493 60.571869,76.629471 
	C60.117481,76.018829 59.782543,75.715767 59.141987,75.251221 
	C58.857704,75.066154 58.812325,75.275978 58.706856,75.256027 
	C58.710651,74.679008 58.490627,74.152351 58.350513,73.353333 
	C58.333668,72.954842 58.393566,72.709801 58.504715,72.683792 
	C68.045456,70.451271 66.894470,63.737297 65.204384,56.776669 
	C65.049896,56.140430 65.074776,55.460644 65.054375,54.375603 
	C65.522560,53.491592 65.507362,52.959576 65.156418,52.201210 
z"/>
<path fill="#359EFA" opacity="1.000000" stroke="none" 
	d="
M53.264069,156.831940 
	C49.757973,163.605713 49.980892,170.449432 51.990082,177.365952 
	C53.621071,182.980545 53.633884,182.979721 47.611591,182.981964 
	C43.446053,182.983521 39.279297,182.912781 35.115398,182.993668 
	C32.218491,183.049927 30.740351,182.465195 31.664104,178.964630 
	C34.722530,167.374756 37.514572,155.714737 40.437233,144.088776 
	C41.353111,140.445526 43.324482,137.387115 46.076706,134.396942 
	C47.092552,133.620392 47.930557,133.140335 49.092522,132.495209 
	C49.416481,132.330124 49.619488,132.733032 49.812553,132.849716 
	C50.005615,132.966400 49.985878,132.992844 50.002129,132.995422 
	C50.253815,133.236343 50.475819,133.486618 50.807724,133.967529 
	C51.685062,135.704361 52.439110,137.222427 53.449612,138.929230 
	C55.521946,140.932510 56.923584,142.997955 57.751793,145.820618 
	C57.903606,146.509674 57.883514,146.892838 57.885128,147.563293 
	C56.475117,150.814926 56.733665,154.594818 53.264069,156.831940 
z"/>
<path fill="#EDB49B" opacity="1.000000" stroke="none" 
	d="
M79.839134,151.258698 
	C79.914352,151.638138 79.656189,151.603058 79.635971,151.731750 
	C80.330849,152.190674 80.481796,152.853836 80.746735,153.845337 
	C80.890022,154.156418 80.893883,154.080154 80.858757,154.095123 
	C81.250694,154.420624 81.618874,154.789871 82.109634,155.566742 
	C82.879784,157.674622 83.391022,159.436737 82.257469,161.558563 
	C82.005997,161.861404 81.805939,162.085022 81.655922,162.083313 
	C81.098900,162.138947 80.743202,162.308273 80.226486,162.795349 
	C79.555626,163.374252 79.089867,163.731628 78.329956,164.138718 
	C77.815056,163.718781 77.497231,163.665817 77.257538,164.250534 
	C77.418770,164.531525 77.351128,164.276825 77.362137,164.408127 
	C73.187294,165.179703 74.014862,160.566895 71.427979,159.048798 
	C70.891907,158.788483 70.688583,158.662506 70.292679,158.233810 
	C70.004593,157.516510 69.909103,157.101929 69.768356,156.371002 
	C70.834175,154.956787 69.682213,155.042313 69.242661,155.206635 
	C69.398964,155.576263 69.729210,155.616501 69.567268,155.581787 
	C68.563103,153.389877 67.785187,151.193192 65.595001,149.440674 
	C64.863457,147.008316 64.273834,144.891754 62.658577,143.279053 
	C62.358002,143.497299 62.641384,143.416443 62.494949,143.432800 
	C58.905590,136.685822 55.131664,130.105194 51.028214,123.366974 
	C50.705246,123.205742 50.778755,123.157234 50.777477,123.201248 
	C49.853485,120.380928 48.418068,117.800507 46.237690,115.256424 
	C44.615852,113.022362 41.547443,111.007599 45.851334,108.956482 
	C48.817696,107.542793 51.613083,103.229378 54.785942,109.316978 
	C59.277477,117.934669 64.477760,126.182953 69.624313,134.813782 
	C72.713379,137.644012 74.052925,141.152100 75.706436,144.871811 
	C75.822884,145.202240 75.848831,145.117447 75.807793,145.134232 
	C77.196350,145.848969 77.372185,147.222656 77.777473,148.857849 
	C77.937698,149.418732 78.018974,149.654877 78.344788,149.973907 
	C79.032990,150.170425 79.455162,150.434006 79.839134,151.258698 
z"/>
<path fill="#F39C09" opacity="1.000000" stroke="none" 
	d="
M49.745892,90.704819 
	C54.435127,97.432159 54.361740,97.794342 47.566998,101.827904 
	C45.713654,102.928108 43.810970,103.945320 41.928852,104.996902 
	C35.389156,108.650795 35.388813,108.650185 32.008369,101.684280 
	C32.021137,100.873886 32.224098,100.449837 32.859306,99.898018 
	C33.889778,99.372223 34.887093,99.205254 35.138947,98.405052 
	C35.866222,96.094360 30.217279,87.130241 27.835590,86.770584 
	C27.449635,86.712296 27.039080,87.276077 26.299072,87.678726 
	C25.216768,87.974869 24.515621,87.827934 23.535637,87.276543 
	C20.995403,83.801003 19.395542,80.621841 23.966326,77.837830 
	C25.520172,76.891396 24.946766,75.168274 25.006390,73.713913 
	C25.145575,70.318817 26.852741,69.464348 29.511398,71.363922 
	C31.204187,72.573395 32.690983,73.144791 34.495827,72.029587 
	C37.671757,70.067200 39.422039,71.603516 40.857277,74.756844 
	C41.954388,76.448097 41.225250,77.411980 39.919014,78.511665 
	C38.558571,79.440880 38.011574,80.329437 38.519043,81.669044 
	C39.765751,84.960091 41.776241,87.824280 43.649708,90.751472 
	C44.775146,92.509926 46.147343,91.867317 47.689316,90.512177 
	C48.506264,90.290619 48.979538,90.342697 49.745892,90.704819 
z"/>
<path fill="#5A5282" opacity="1.000000" stroke="none" 
	d="
M120.711578,48.075157 
	C123.089165,47.406715 125.091324,46.653770 127.106537,45.937592 
	C128.300232,45.513371 129.715759,44.552319 130.587601,46.168205 
	C131.406219,47.685486 130.610962,49.143482 129.342346,50.061852 
	C127.357719,51.498554 125.226257,52.732430 123.010757,54.345097 
	C122.258011,56.107311 121.077690,56.865704 119.270782,57.368736 
	C116.386902,57.962738 114.350761,59.448692 111.995392,61.054977 
	C110.861992,61.544422 110.003120,61.816177 108.876122,62.318306 
	C107.270767,62.736912 105.991692,63.117153 104.308578,62.966896 
	C100.803619,64.427910 97.629395,65.900856 94.179214,67.581406 
	C89.067116,71.724236 83.480827,74.076454 77.155685,75.735710 
	C76.119385,75.940071 75.414177,75.976913 74.360748,76.076241 
	C72.554863,75.550133 69.936852,75.667595 69.983093,74.083183 
	C70.043739,72.005150 72.207863,70.734520 74.654892,70.003357 
	C76.443207,67.876678 78.202950,66.276039 80.524254,65.130592 
	C92.099373,59.418850 104.001900,54.409340 115.572693,48.692402 
	C117.089455,47.942997 118.631912,47.400879 120.711578,48.075157 
z"/>
<path fill="#F2BDA7" opacity="1.000000" stroke="none" 
	d="
M85.434357,97.419357 
	C85.801430,102.062378 85.923737,106.872124 85.998444,111.682625 
	C86.079742,116.917503 88.533203,119.562653 93.653290,121.015419 
	C99.363686,122.635666 104.782639,120.608612 110.664352,120.508484 
	C110.857758,122.024117 109.848358,122.587921 108.707481,122.908752 
	C100.260735,125.284126 92.146866,125.438934 84.814987,118.842255 
	C84.520027,117.542290 84.222740,116.726219 83.342407,115.680038 
	C83.031395,110.090515 82.604927,104.912125 83.687317,99.371277 
	C84.347878,98.520012 84.758247,98.053215 85.434357,97.419357 
z"/>
<path fill="#4C423F" opacity="1.000000" stroke="none" 
	d="
M84.806473,117.697800 
	C92.790581,124.397110 101.278900,125.140137 110.669022,120.868202 
	C111.319389,120.675797 111.624107,120.611496 112.139725,120.402077 
	C112.548714,121.200493 112.558250,122.016548 111.803581,122.603928 
	C106.003784,127.118057 90.891968,126.258560 85.660118,121.062759 
	C84.991096,120.398346 84.652420,119.401299 84.106255,118.204773 
	C84.245308,117.687355 84.438820,117.523521 84.806473,117.697800 
z"/>
<path fill="#47454C" opacity="1.000000" stroke="none" 
	d="
M77.216278,75.948441 
	C81.658493,71.994125 87.345154,69.822609 93.526505,67.840195 
	C93.744659,68.414551 93.796745,69.327423 93.395294,69.621796 
	C88.683289,73.077042 84.327583,77.500343 77.216278,75.948441 
z"/>
<path fill="#4C423F" opacity="1.000000" stroke="none" 
	d="
M115.870529,109.403740 
	C116.500381,109.007103 116.738388,108.842888 116.972153,108.359344 
	C118.284111,106.518646 120.447006,107.238472 122.316185,106.205261 
	C122.700005,106.179802 122.812134,106.313850 122.882866,106.262535 
	C124.357094,104.552742 124.745590,102.237320 126.823624,100.687515 
	C130.821106,101.311821 127.941704,104.492691 129.616074,105.947830 
	C129.650604,107.457741 128.434540,108.451843 126.920319,109.651939 
	C122.148308,108.107178 118.576927,109.973679 118.010765,114.356888 
	C117.841599,115.666588 117.936600,117.037056 116.058235,117.786407 
	C114.563026,115.191795 114.787781,112.472588 115.870529,109.403740 
z"/>
<path fill="#A36161" opacity="1.000000" stroke="none" 
	d="
M49.971996,90.560394 
	C49.540642,90.948524 49.031437,90.993416 48.154083,91.145554 
	C46.304462,91.631729 45.095016,91.027649 44.284332,89.916237 
	C41.568565,86.193016 38.739193,82.509972 38.004242,77.497421 
	C39.161407,76.832039 40.565773,77.288765 40.940285,75.394180 
	C43.976757,80.120178 46.935455,85.168671 49.971996,90.560394 
z"/>
<path fill="#A46162" opacity="1.000000" stroke="none" 
	d="
M23.347275,87.379852 
	C23.909184,87.020004 24.594351,86.964050 25.622921,86.862717 
	C30.281744,88.007103 34.828995,95.012070 34.396515,100.496147 
	C33.654144,100.918243 33.160492,101.031242 32.300171,101.250107 
	C28.414055,97.230888 26.061363,92.383614 23.347275,87.379852 
z"/>
<path fill="#4C423F" opacity="1.000000" stroke="none" 
	d="
M117.286842,62.852196 
	C111.542007,65.224236 106.185532,67.609535 100.488686,70.107498 
	C100.620514,67.163979 103.437454,66.722076 105.748962,65.210037 
	C106.427299,64.446945 106.610672,63.758190 107.350098,63.033203 
	C108.480110,62.484093 109.329903,62.131687 110.478043,61.596874 
	C113.283165,60.597195 115.132469,58.573669 117.999313,57.654602 
	C119.408974,57.410854 120.411057,57.488300 121.612213,58.350918 
	C122.777397,62.307915 119.392609,61.757420 117.286842,62.852196 
z"/>
<path fill="#E3B8A1" opacity="1.000000" stroke="none" 
	d="
M50.788628,123.555435 
	C55.078957,124.436653 54.919430,129.084381 57.173058,131.931885 
	C59.668373,135.084778 61.635899,138.685760 62.480774,143.072327 
	C61.809742,142.723297 61.270969,141.997452 60.523315,141.090118 
	C59.055050,140.379272 58.748165,139.150650 58.213135,137.712234 
	C55.752357,132.868423 53.312183,128.386780 50.788628,123.555435 
z"/>
<path fill="#CD7A74" opacity="1.000000" stroke="none" 
	d="
M90.979820,79.862762 
	C89.163048,79.184723 86.921082,78.348465 87.550652,76.686996 
	C88.303368,74.700539 90.993347,74.401260 92.934036,73.541313 
	C93.685852,73.208168 94.341240,73.639336 94.470757,74.306274 
	C94.992683,76.994087 93.636436,78.699112 90.979820,79.862762 
z"/>
<path fill="#382F2F" opacity="1.000000" stroke="none" 
	d="
M83.593864,99.167328 
	C83.914909,104.343185 83.892311,109.699562 83.935570,115.518456 
	C84.138916,116.238449 84.276413,116.495926 83.989197,116.859848 
	C80.794968,111.141006 81.380341,105.255882 83.593864,99.167328 
z"/>
<path fill="#57453F" opacity="1.000000" stroke="none" 
	d="
M84.035721,150.392822 
	C85.704430,152.681473 87.259987,155.417633 89.027229,158.009430 
	C91.534615,161.686707 90.548302,164.131226 86.296509,165.798676 
	C88.746262,162.483643 88.109993,159.144958 85.861206,155.816788 
	C84.830734,154.291702 83.848404,152.742599 84.035721,150.392822 
z"/>
<path fill="#4C423F" opacity="1.000000" stroke="none" 
	d="
M99.860756,70.246117 
	C99.709908,75.560753 100.773346,81.572830 94.359985,84.991516 
	C97.645027,80.834015 97.270706,75.110229 99.860756,70.246117 
z"/>
<path fill="#57453F" opacity="1.000000" stroke="none" 
	d="
M92.728806,142.787567 
	C90.056129,142.607498 87.204437,142.023483 84.325630,141.646591 
	C82.620193,141.423325 80.960587,141.645111 81.088867,144.480408 
	C79.487076,144.526733 78.880020,143.538666 79.406883,141.958969 
	C79.831474,140.685928 80.906639,140.146240 82.119781,140.127625 
	C85.768532,140.071625 89.380875,140.293091 92.728806,142.787567 
z"/>
<path fill="#41434C" opacity="1.000000" stroke="none" 
	d="
M52.989616,156.989426 
	C53.627728,153.639526 55.491520,150.958466 57.652412,148.075089 
	C58.095528,149.248734 57.778545,150.831482 59.652397,151.870819 
	C60.294792,152.337936 60.431816,152.734177 60.228340,153.455856 
	C60.040051,153.725021 59.876064,153.942261 59.742462,153.968170 
	C57.422253,154.794312 57.319725,158.904556 53.524372,157.417816 
	C53.219879,157.202271 53.066364,157.060379 52.989616,156.989426 
z"/>
<path fill="#F2BDA7" opacity="1.000000" stroke="none" 
	d="
M115.830276,109.183411 
	C116.074402,111.714775 115.961227,114.366638 115.767136,117.453766 
	C115.408073,117.905251 115.187714,118.026489 114.954285,118.433334 
	C114.819328,119.140640 114.511063,119.409340 113.665077,119.320816 
	C113.871986,115.853165 113.084747,112.235344 115.830276,109.183411 
z"/>
<path fill="#57453F" opacity="1.000000" stroke="none" 
	d="
M75.846115,144.814331 
	C73.316055,142.397400 71.816788,138.976425 69.952263,135.384552 
	C74.314186,136.608093 74.809639,140.697449 75.846115,144.814331 
z"/>
<path fill="#57453F" opacity="1.000000" stroke="none" 
	d="
M60.383915,153.799484 
	C60.017677,153.343842 59.995304,152.962646 59.976707,152.294373 
	C64.599724,152.333237 65.030754,156.017471 65.850082,159.744202 
	C63.653961,158.421265 63.599186,155.000076 60.383915,153.799484 
z"/>
<path fill="#57453F" opacity="1.000000" stroke="none" 
	d="
M101.847839,148.865082 
	C99.010460,147.402466 96.669739,144.791428 93.164368,143.350677 
	C97.139221,142.867325 100.223923,144.464050 101.847839,148.865082 
z"/>
<path fill="#E3B8A1" opacity="1.000000" stroke="none" 
	d="
M46.047752,115.360550 
	C49.693512,116.139824 50.320984,119.269402 50.812943,122.854355 
	C48.712433,121.045380 47.523689,118.303459 46.047752,115.360550 
z"/>
<path fill="#E3B8A1" opacity="1.000000" stroke="none" 
	d="
M70.688217,158.391968 
	C74.698174,158.254684 73.725304,163.088989 77.035278,164.335693 
	C75.289597,166.873001 74.516472,164.787628 73.325623,163.182465 
	C72.745766,162.719177 72.434204,162.416534 72.120682,161.723984 
	C71.917747,160.983917 71.784218,160.565781 71.456474,160.026764 
	C70.742271,159.687424 70.495972,159.296509 70.688217,158.391968 
z"/>
<path fill="#57453F" opacity="1.000000" stroke="none" 
	d="
M85.419312,165.947571 
	C83.098877,167.568268 80.398453,169.190292 77.362328,170.882019 
	C78.513039,167.387009 81.556770,166.316544 85.419312,165.947571 
z"/>
<path fill="#40434E" opacity="1.000000" stroke="none" 
	d="
M151.590149,132.150772 
	C149.020737,131.449875 146.329422,130.408844 143.343170,129.185883 
	C146.558624,127.828377 149.332352,128.862793 151.590149,132.150772 
z"/>
<path fill="#E3B8A1" opacity="1.000000" stroke="none" 
	d="
M65.743134,149.478729 
	C69.149918,149.711472 69.368256,152.238388 69.494812,155.156906 
	C69.141022,155.457108 68.918480,155.305740 68.558784,154.995132 
	C67.653511,154.669174 67.520798,154.035004 67.249130,153.116806 
	C67.131836,152.817947 67.100914,152.927536 67.156387,152.940369 
	C66.589478,152.634491 66.518059,152.008667 66.214729,151.162659 
	C66.066841,150.895645 66.037109,150.964951 66.072945,150.953217 
	C65.736267,150.732101 65.519493,150.415939 65.743134,149.478729 
z"/>
<path fill="#47454C" opacity="1.000000" stroke="none" 
	d="
M108.246582,63.649414 
	C107.532394,64.291504 107.050949,64.585907 106.288391,64.935875 
	C105.455627,64.459381 104.903984,63.927326 104.165100,63.175117 
	C105.103264,62.335426 106.228683,61.715881 107.676628,61.040024 
	C108.640221,61.656746 108.763290,62.437080 108.246582,63.649414 
z"/>
<path fill="#4A4950" opacity="1.000000" stroke="none" 
	d="
M34.496681,67.214607 
	C36.472813,65.389091 38.768322,66.041847 41.287346,67.518570 
	C39.287498,67.923630 37.038864,68.227737 34.496681,67.214607 
z"/>
<path fill="#41434C" opacity="1.000000" stroke="none" 
	d="
M57.936340,145.742035 
	C56.603226,144.005676 55.282749,141.884872 53.834171,139.440994 
	C56.653599,140.155243 57.703773,142.482727 57.936340,145.742035 
z"/>
<path fill="#333335" opacity="1.000000" stroke="none" 
	d="
M25.822155,106.791458 
	C22.504860,108.124214 22.110943,106.703835 23.694744,103.811523 
	C24.036964,104.972794 24.756168,105.821014 25.822155,106.791458 
z"/>
<path fill="#40434E" opacity="1.000000" stroke="none" 
	d="
M130.577393,177.967697 
	C131.586136,178.957596 132.478470,180.326370 133.480957,181.976349 
	C130.290787,182.760208 130.731018,180.269165 130.577393,177.967697 
z"/>
<path fill="#57453F" opacity="1.000000" stroke="none" 
	d="
M81.223778,156.058258 
	C81.016685,155.381378 80.942123,155.021347 80.845596,154.385712 
	C83.527222,154.459152 84.634758,155.961075 83.995544,158.948792 
	C82.074127,159.147110 82.231552,157.306046 81.223778,156.058258 
z"/>
<path fill="#E3B8A1" opacity="1.000000" stroke="none" 
	d="
M81.131554,156.129028 
	C81.848251,156.782959 82.605247,157.824493 83.625900,159.057739 
	C84.023857,160.369888 83.830498,161.325684 82.314148,161.816498 
	C81.727951,160.079819 81.449905,158.298233 81.131554,156.129028 
z"/>
<path fill="#E3B8A1" opacity="1.000000" stroke="none" 
	d="
M62.432774,143.807861 
	C65.273590,143.774979 65.500671,146.098846 65.997734,148.602280 
	C66.027756,148.964462 65.876328,149.099045 65.799950,149.165573 
	C64.969872,149.290909 64.566574,148.845795 64.201965,147.918884 
	C63.583740,146.444794 63.045643,145.281601 62.432774,143.807861 
z"/>
<path fill="#57453F" opacity="1.000000" stroke="none" 
	d="
M76.564796,170.994995 
	C74.455223,173.081467 72.577637,172.319427 70.990288,169.440247 
	C72.792427,169.384033 74.103920,171.287567 76.564796,170.994995 
z"/>
<path fill="#FBC5AB" opacity="1.000000" stroke="none" 
	d="
M93.098328,86.407455 
	C91.420601,88.033897 89.343735,89.001617 87.176498,86.153351 
	C88.871933,86.721443 90.784500,86.467926 93.098328,86.407455 
z"/>
<path fill="#54403E" opacity="1.000000" stroke="none" 
	d="
M109.928284,163.647308 
	C109.249847,162.613098 108.601799,161.196701 107.965576,159.440872 
	C110.298721,159.698990 109.923820,161.579544 109.928284,163.647308 
z"/>
<path fill="#423434" opacity="1.000000" stroke="none" 
	d="
M83.562729,81.176918 
	C82.349770,81.415558 81.249481,81.423805 79.819702,81.404892 
	C80.678467,79.226845 82.128426,79.615929 83.562729,81.176918 
z"/>
<path fill="#57453F" opacity="1.000000" stroke="none" 
	d="
M77.956017,148.772217 
	C77.260880,148.035309 76.573441,146.919647 75.826378,145.477509 
	C77.705391,145.414474 77.967911,146.813614 77.956017,148.772217 
z"/>
<path fill="#57453F" opacity="1.000000" stroke="none" 
	d="
M68.016281,163.437347 
	C67.314323,162.788010 66.616432,161.791000 65.872574,160.488342 
	C67.623795,160.347275 67.967972,161.608368 68.016281,163.437347 
z"/>
<path fill="#47454C" opacity="1.000000" stroke="none" 
	d="
M71.510574,84.984093 
	C71.320557,84.455376 71.411102,83.903717 71.719070,83.168015 
	C72.515320,83.157684 73.307457,83.319290 73.140450,84.040390 
	C73.050087,84.430557 72.263588,84.659492 71.510574,84.984093 
z"/>
<path fill="#57453F" opacity="1.000000" stroke="none" 
	d="
M58.176125,137.751221 
	C58.839546,138.311386 59.486561,139.272705 60.224007,140.571320 
	C58.777058,140.630249 58.137005,139.650375 58.176125,137.751221 
z"/>
<path fill="#40434E" opacity="1.000000" stroke="none" 
	d="
M128.072784,174.317139 
	C128.826309,174.948380 129.634033,175.916748 130.535080,177.187088 
	C128.899475,177.334000 128.507706,175.999008 128.072784,174.317139 
z"/>
<path fill="#57453F" opacity="1.000000" stroke="none" 
	d="
M104.969482,152.615662 
	C104.316071,152.206604 103.646126,151.454178 102.873085,150.414124 
	C104.093620,150.235474 104.816750,150.955353 104.969482,152.615662 
z"/>
<path fill="#57453F" opacity="1.000000" stroke="none" 
	d="
M82.089767,147.180283 
	C82.714478,147.659256 83.333755,148.484344 83.986938,149.623749 
	C82.717216,149.662643 82.121429,148.818832 82.089767,147.180283 
z"/>
<path fill="#57453F" opacity="1.000000" stroke="none" 
	d="
M64.115189,147.977463 
	C64.502007,148.034851 64.882172,148.461746 65.492950,149.060364 
	C65.826202,149.608246 65.928833,149.984390 66.070122,150.651016 
	C64.718407,150.634521 64.115356,149.720566 64.115189,147.977463 
z"/>
<path fill="#40434E" opacity="1.000000" stroke="none" 
	d="
M157.370972,138.094864 
	C156.821457,137.839462 156.356506,137.252472 155.793900,136.399933 
	C156.644684,136.286346 157.450302,136.592590 157.370972,138.094864 
z"/>
<path fill="#54403E" opacity="1.000000" stroke="none" 
	d="
M111.927010,166.745728 
	C110.904266,166.628113 110.345467,165.755066 109.934868,164.418579 
	C110.966148,164.541031 111.653198,165.290833 111.927010,166.745728 
z"/>
<path fill="#40434E" opacity="1.000000" stroke="none" 
	d="
M153.799637,133.975922 
	C153.214447,133.873016 152.565689,133.434494 151.744370,132.756042 
	C152.583221,132.332535 153.376953,132.568039 153.799637,133.975922 
z"/>
<path fill="#57453F" opacity="1.000000" stroke="none" 
	d="
M70.666191,158.012115 
	C70.947807,158.461685 71.042572,158.872620 71.199799,159.594727 
	C70.399475,159.738663 69.407089,159.694504 69.942169,158.140381 
	C70.100082,157.931091 70.479340,157.973465 70.666191,158.012115 
z"/>
<path fill="#4C423F" opacity="1.000000" stroke="none" 
	d="
M113.224777,119.402054 
	C113.674805,119.042801 114.012543,118.900414 114.616867,118.685974 
	C114.722000,119.605301 114.397881,120.449890 112.832352,120.425529 
	C112.643372,120.071434 112.854881,119.825363 113.224777,119.402054 
z"/>
<path fill="#54403E" opacity="1.000000" stroke="none" 
	d="
M116.881416,170.470490 
	C116.352425,170.396027 115.720268,170.045959 114.942322,169.463074 
	C115.640511,169.175034 116.339325,169.418015 116.881416,170.470490 
z"/>
<path fill="#54403E" opacity="1.000000" stroke="none" 
	d="
M120.887955,173.334488 
	C120.410126,173.211548 119.838326,172.838821 119.163208,172.220245 
	C119.637924,172.344482 120.215958,172.714600 120.887955,173.334488 
z"/>
<path fill="#54403E" opacity="1.000000" stroke="none" 
	d="
M107.935143,158.616150 
	C107.596024,158.187653 107.269020,157.442062 106.936066,156.383438 
	C107.269173,156.813293 107.608215,157.556183 107.935143,158.616150 
z"/>
<path fill="#54403E" opacity="1.000000" stroke="none" 
	d="
M126.846237,179.892120 
	C126.382408,179.640411 125.890327,179.090332 125.313461,178.276031 
	C126.045387,178.250854 126.617081,178.736053 126.846237,179.892120 
z"/>
<path fill="#C9A496" opacity="1.000000" stroke="none" 
	d="
M83.727539,117.164810 
	C83.608727,116.789459 83.652946,116.612633 83.849304,116.208389 
	C84.301987,116.472023 84.602547,116.963066 84.941864,117.745010 
	C84.980629,118.035912 84.511742,117.966095 84.281769,117.908646 
	C83.998055,117.688576 83.944313,117.525963 83.727539,117.164810 
z"/>
<path fill="#54403E" opacity="1.000000" stroke="none" 
	d="
M114.712173,169.012787 
	C114.329712,169.036331 113.775856,168.809341 113.069183,168.320541 
	C113.457832,168.293243 113.999306,168.527756 114.712173,169.012787 
z"/>
<path fill="#57453F" opacity="1.000000" stroke="none" 
	d="
M70.880219,168.781479 
	C70.576393,168.605667 70.242950,168.138092 69.895798,167.374161 
	C70.204933,167.548447 70.527763,168.019073 70.880219,168.781479 
z"/>
<path fill="#57453F" opacity="1.000000" stroke="none" 
	d="
M66.113945,151.197784 
	C66.423782,151.377487 66.780731,151.859329 67.174774,152.647186 
	C66.861595,152.468765 66.511322,151.984329 66.113945,151.197784 
z"/>
<path fill="#57453F" opacity="1.000000" stroke="none" 
	d="
M69.862289,166.777588 
	C69.566345,166.598175 69.248940,166.125031 68.904312,165.359634 
	C69.198334,165.539551 69.519577,166.011703 69.862289,166.777588 
z"/>
<path fill="#57453F" opacity="1.000000" stroke="none" 
	d="
M80.840355,153.820694 
	C80.502594,153.617035 80.115173,153.077652 79.671745,152.199341 
	C80.007393,152.401947 80.399040,152.943451 80.840355,153.820694 
z"/>
<path fill="#57453F" opacity="1.000000" stroke="none" 
	d="
M67.174728,153.135529 
	C67.502594,153.307816 67.873352,153.797668 68.311989,154.592407 
	C67.992447,154.415894 67.605034,153.934494 67.174728,153.135529 
z"/>
<path fill="#40434E" opacity="1.000000" stroke="none" 
	d="
M158.562180,140.019226 
	C158.183456,139.912048 157.847382,139.487610 157.429886,138.800903 
	C158.040390,138.631439 158.499008,138.976212 158.562180,140.019226 
z"/>
<path fill="#57453F" opacity="1.000000" stroke="none" 
	d="
M106.881897,155.749664 
	C106.593445,155.578751 106.273575,155.115982 105.896622,154.372910 
	C106.176514,154.547668 106.513489,155.002731 106.881897,155.749664 
z"/>
<path fill="#54403E" opacity="1.000000" stroke="none" 
	d="
M118.826759,171.756256 
	C118.684746,171.814911 118.358055,171.693481 117.870697,171.365204 
	C118.020714,171.297607 118.331398,171.436890 118.826759,171.756256 
z"/>
<path fill="#41434C" opacity="1.000000" stroke="none" 
	d="
M50.813690,133.963104 
	C50.655289,133.968567 50.379562,133.750839 50.061111,133.265564 
	C50.244373,133.245300 50.470371,133.492615 50.813690,133.963104 
z"/>
<path fill="#54403E" opacity="1.000000" stroke="none" 
	d="
M124.902557,177.596649 
	C124.748070,177.718002 124.609718,177.642059 124.556625,177.340149 
	C124.584106,177.218933 124.860939,177.504105 124.902557,177.596649 
z"/>
<path fill="#E3B8A1" opacity="1.000000" stroke="none" 
	d="
M80.318245,162.951660 
	C80.331818,162.778732 80.642265,162.540604 81.229301,162.192047 
	C81.208969,162.349884 80.912041,162.618179 80.318245,162.951660 
z"/>
<path fill="#57453F" opacity="1.000000" stroke="none" 
	d="
M68.832474,164.896667 
	C68.563011,165.047379 68.328712,164.849609 68.182068,164.274109 
	C68.402367,164.206589 68.601669,164.423859 68.832474,164.896667 
z"/>
<path fill="#E3B8A1" opacity="1.000000" stroke="none" 
	d="
M77.602600,164.498947 
	C77.418770,164.531525 77.465683,164.113937 77.465683,164.113937 
	C77.465683,164.113937 77.817177,164.000610 77.926483,164.094513 
	C78.035797,164.188431 77.786438,164.466370 77.602600,164.498947 
z"/>
<path fill="#57453F" opacity="1.000000" stroke="none" 
	d="
M79.725800,151.339172 
	C79.530075,151.354477 79.145790,151.070816 78.629456,150.437805 
	C78.844025,150.405701 79.190636,150.722946 79.725800,151.339172 
z"/>
<path fill="#57453F" opacity="1.000000" stroke="none" 
	d="
M72.179977,161.694519 
	C72.353416,161.710419 72.655540,162.018753 73.036469,162.645233 
	C72.846405,162.637894 72.577538,162.312424 72.179977,161.694519 
z"/>
<path fill="#57453F" opacity="1.000000" stroke="none" 
	d="
M81.140083,145.106018 
	C81.404480,144.983551 81.620071,145.181335 81.712555,145.730286 
	C81.488853,145.775986 81.322800,145.557587 81.140083,145.106018 
z"/>
<path fill="#E3B8A1" opacity="1.000000" stroke="none" 
	d="
M69.429291,155.730225 
	C69.398964,155.576263 69.806694,155.537430 69.806694,155.537430 
	C69.806694,155.537430 69.920860,155.852646 69.821991,155.953659 
	C69.723114,156.054672 69.459610,155.884186 69.429291,155.730225 
z"/>
<path fill="#41434C" opacity="1.000000" stroke="none" 
	d="
M49.958107,132.860367 
	C50.005615,132.966400 49.662033,132.689819 49.539257,132.509979 
	C49.628834,132.417358 49.793541,132.558762 49.958107,132.860367 
z"/>
<path fill="#54403E" opacity="1.000000" stroke="none" 
	d="
M55.468414,164.149582 
	C55.466141,169.936401 56.186554,175.697830 59.104996,181.413193 
	C54.484150,178.829193 52.567215,170.587219 55.468414,164.149582 
z"/>
<path fill="#57453F" opacity="1.000000" stroke="none" 
	d="
M53.234402,157.450241 
	C55.773613,157.310074 56.776478,154.599762 59.286232,154.017731 
	C58.859932,155.508286 58.110996,157.022491 57.139404,158.769135 
	C56.748825,159.154999 56.580910,159.308411 56.098312,159.593658 
	C55.321625,159.757935 54.885765,159.666199 54.226997,159.217072 
	C53.734932,158.555344 53.491928,158.126770 53.234402,157.450241 
z"/>
<path fill="#474347" opacity="1.000000" stroke="none" 
	d="
M41.029854,133.813751 
	C41.096352,133.265991 41.373657,132.904816 41.858459,132.442474 
	C42.334988,133.164993 43.095768,134.233307 41.029854,133.813751 
z"/>
<path fill="#483B38" opacity="1.000000" stroke="none" 
	d="
M54.053009,159.268951 
	C54.424900,158.988480 54.871872,158.993042 55.653770,159.003876 
	C56.392086,159.433029 56.529037,159.929413 56.097355,160.773102 
	C55.239468,160.549286 54.683781,160.051651 54.053009,159.268951 
z"/>
<path fill="#54403E" opacity="1.000000" stroke="none" 
	d="
M55.866325,161.292999 
	C55.848770,160.594925 55.902386,160.142944 55.972351,159.350555 
	C55.988701,159.010162 56.452805,159.002716 56.684776,159.002151 
	C56.781376,159.846817 56.646004,160.692062 56.303894,161.781601 
	C56.043941,161.863617 55.990719,161.701340 55.866325,161.292999 
z"/>
<path fill="#5D393F" opacity="1.000000" stroke="none" 
	d="
M89.233032,177.299957 
	C91.621582,177.160263 93.071083,177.995132 93.529739,180.041641 
	C93.735741,180.960846 93.101936,181.606964 92.217560,181.765610 
	C90.623085,182.051697 88.797981,182.469955 87.692368,180.985367 
	C86.622299,179.548477 87.364960,178.232651 89.233032,177.299957 
z"/>
<path fill="#2F2F31" opacity="1.000000" stroke="none" 
	d="
M129.697937,55.371376 
	C130.409546,55.014900 130.816635,55.028748 131.527771,55.015327 
	C131.739929,68.587257 131.654480,82.186508 131.548492,95.785591 
	C131.534302,97.606140 131.416306,99.425873 131.206207,101.635117 
	C129.272751,102.219452 129.053604,100.840271 128.614685,99.150856 
	C128.420929,86.536850 128.538956,74.398643 128.500366,61.781410 
	C128.617661,59.419662 128.102203,57.435623 129.697937,55.371376 
z"/>
<path fill="#474347" opacity="1.000000" stroke="none" 
	d="
M129.613815,98.755577 
	C130.170013,99.843346 130.394272,100.689003 130.842285,101.779449 
	C131.411301,103.267174 130.969681,104.330193 130.141525,105.573669 
	C126.246628,106.105217 128.438370,102.803001 127.141571,101.239304 
	C126.595108,100.519958 126.467300,100.004684 126.744873,99.078384 
	C127.686737,98.238289 128.467880,98.188728 129.613815,98.755577 
z"/>
<path fill="#2F2F32" opacity="1.000000" stroke="none" 
	d="
M58.064758,73.376968 
	C58.422142,73.625740 58.594440,74.153831 58.684059,74.959000 
	C57.783920,74.973030 57.771923,74.342010 58.064758,73.376968 
z"/>
<path fill="#313034" opacity="1.000000" stroke="none" 
	d="
M64.919388,52.325897 
	C65.478653,52.432011 65.858559,52.902420 65.251839,53.776470 
	C65.019432,53.517773 64.946465,53.085423 64.919388,52.325897 
z"/>
<path fill="#2F2F32" opacity="1.000000" stroke="none" 
	d="
M58.855789,75.481331 
	C59.210800,75.340981 59.563900,75.615807 60.174046,76.118042 
	C59.905350,76.195816 59.379608,76.046165 58.855789,75.481331 
z"/>
<path fill="#313034" opacity="1.000000" stroke="none" 
	d="
M65.015320,47.272472 
	C65.311104,47.282261 65.341507,47.528252 65.088104,47.883423 
	C64.995049,47.988174 64.940689,47.504242 65.015320,47.272472 
z"/>
<path fill="#F2BDA7" opacity="1.000000" stroke="none" 
	d="
M127.255234,98.686516 
	C126.905693,99.438408 126.846046,99.881340 126.858139,100.654068 
	C126.011658,102.778778 125.378548,104.762733 123.281075,106.102036 
	C127.012695,92.250084 124.195183,77.965599 124.917091,63.847260 
	C125.020287,61.828968 123.889633,61.281509 121.993538,62.025806 
	C120.521530,62.603626 119.239693,64.029984 117.148621,63.033974 
	C118.604424,61.923088 120.310379,61.007236 122.250366,59.864525 
	C122.320587,59.415997 122.156769,59.194332 122.281235,58.676689 
	C123.861458,57.862366 125.166245,57.427032 126.978745,57.914619 
	C128.379578,58.716396 128.693680,59.841591 129.357483,61.209332 
	C128.773529,72.950127 128.906723,84.307785 128.493027,95.649780 
	C128.455780,96.670898 128.310287,97.623932 127.255234,98.686516 
z"/>
<path fill="#52443F" opacity="1.000000" stroke="none" 
	d="
M105.726562,106.629128 
	C106.718224,107.015953 107.419769,107.179489 108.482834,107.357056 
	C111.578377,107.850571 112.138824,109.263046 110.334656,111.773781 
	C109.845284,112.250465 109.629410,112.480415 109.183823,112.812271 
	C101.715965,114.250961 95.663467,111.143997 89.812622,107.509117 
	C88.727516,106.834984 88.065750,105.527328 88.701828,104.038284 
	C89.288757,102.664299 90.338333,102.107895 91.799118,102.030037 
	C93.536682,101.937439 95.051445,102.373932 96.651123,103.839012 
	C97.720947,104.481560 98.496552,104.809998 99.593384,105.168350 
	C101.939804,104.756760 103.790825,105.111671 105.726562,106.629128 
z"/>
<path fill="#E4B19D" opacity="1.000000" stroke="none" 
	d="
M96.847946,103.799019 
	C94.458237,104.286407 91.147514,100.191360 89.687431,104.465652 
	C88.400681,108.232567 92.839333,108.493034 95.177834,109.517448 
	C99.299164,111.322861 103.696770,112.363251 108.599442,112.856659 
	C108.527031,114.601463 107.426804,114.641479 105.908295,114.494926 
	C100.871216,114.008842 96.262894,112.370277 91.863861,109.941994 
	C89.789436,108.796913 87.633904,107.761765 87.526276,105.029251 
	C87.463882,103.445244 88.254738,101.977150 89.790329,101.501572 
	C92.430099,100.684021 95.050018,100.594513 96.847946,103.799019 
z"/>
<path fill="#E4B19D" opacity="1.000000" stroke="none" 
	d="
M105.894119,106.537033 
	C104.163055,106.454277 102.309433,106.056145 100.185211,105.428139 
	C102.255196,103.317291 104.129509,104.104828 105.894119,106.537033 
z"/>
<path fill="#E4B19D" opacity="1.000000" stroke="none" 
	d="
M110.345154,111.858200 
	C110.517982,110.455154 111.056778,108.912216 109.039169,107.594849 
	C109.669067,106.555008 110.631783,106.243568 111.304588,107.371353 
	C112.221153,108.907753 112.379425,110.498894 110.345154,111.858200 
z"/>
<path fill="#F2BDA7" opacity="1.000000" stroke="none" 
	d="
M122.259674,106.139160 
	C121.470337,107.866066 119.496628,107.572571 117.422180,108.084572 
	C117.819046,105.563980 119.927078,106.082626 122.259674,106.139160 
z"/>
<path fill="#339EFB" opacity="1.000000" stroke="none" 
	d="
M71.313751,65.177498 
	C70.504539,61.312374 70.047745,57.687923 69.462875,54.084267 
	C68.332474,47.119259 70.430099,41.718121 76.659668,37.983013 
	C84.357239,33.367725 92.012238,28.672525 99.541763,23.789993 
	C102.826157,21.660225 105.228561,22.048782 107.775688,24.884703 
	C111.995995,29.583504 116.359261,34.158207 120.774155,38.675880 
	C122.635635,40.580692 123.280983,42.149105 120.278709,43.882111 
	C118.897324,46.200706 117.172821,47.642452 114.957161,48.591381 
	C102.793640,53.800800 90.983994,59.783073 78.893059,65.156052 
	C76.354607,66.284088 74.035538,65.490410 71.313751,65.177498 
z"/>
<path fill="#3F4250" opacity="1.000000" stroke="none" 
	d="
M71.265884,65.162125 
	C73.196007,65.957443 74.841995,64.535355 76.620308,63.717365 
	C90.841499,57.175884 105.063316,50.635750 119.644928,44.071136 
	C120.263229,45.193909 120.521553,46.340748 120.930695,47.815891 
	C106.405075,56.310081 90.773300,62.476418 75.351089,69.878227 
	C75.223526,67.354668 73.437309,66.322556 71.265884,65.162125 
z"/>
<path fill="#474347" opacity="1.000000" stroke="none" 
	d="
M122.488083,59.632225 
	C121.292465,59.431000 120.100517,59.224339 118.453979,59.006363 
	C117.368141,58.333786 117.259987,57.564133 117.766525,56.379860 
	C119.388992,55.628742 120.772202,55.214443 122.509964,54.719055 
	C122.903709,55.160881 122.942894,55.683796 122.995361,56.596931 
	C123.430145,57.805553 122.950241,58.348713 122.463211,59.243599 
	C122.495689,59.607418 122.491745,59.626793 122.488083,59.632225 
z"/>
<path fill="#474347" opacity="1.000000" stroke="none" 
	d="
M127.700500,61.860634 
	C127.036049,61.602924 126.919327,60.705936 126.874756,59.470940 
	C126.386230,58.377720 125.613029,57.730579 125.841782,56.330856 
	C127.106300,55.712360 128.214813,55.416225 129.662872,55.060577 
	C129.981979,56.721161 129.961502,58.441265 129.930496,60.591232 
	C129.362717,61.087852 128.805466,61.154598 127.700500,61.860634 
z"/>
<path fill="#4C423F" opacity="1.000000" stroke="none" 
	d="
M125.685303,56.057098 
	C126.288536,56.832363 126.579292,57.656227 126.908478,58.806515 
	C125.613968,58.139870 124.469955,59.156033 122.878250,59.543472 
	C122.583000,58.943130 122.670319,58.278847 122.883141,57.300850 
	C123.796707,56.693329 124.584770,56.399517 125.685303,56.057098 
z"/>
<path fill="#533E3B" opacity="1.000000" stroke="none" 
	d="
M37.818848,77.188477 
	C42.429893,80.904236 43.721146,86.599983 47.530891,91.019073 
	C47.963428,93.055969 48.383579,95.144318 46.056404,95.754005 
	C44.149902,96.253487 43.183308,94.628899 42.336525,93.170502 
	C40.199963,89.490738 38.026497,85.832191 35.913963,82.138756 
	C34.686470,79.992683 34.399830,78.061089 37.818848,77.188477 
z"/>
<path fill="#543D3D" opacity="1.000000" stroke="none" 
	d="
M34.514221,100.905121 
	C31.582563,96.314667 29.017330,91.824104 26.209211,87.075439 
	C25.801758,85.168793 25.377197,83.354591 27.734936,82.903473 
	C29.520767,82.561775 30.440044,83.796936 31.214952,85.123749 
	C33.461781,88.970856 35.789692,92.775208 37.896854,96.697823 
	C39.597572,99.863823 38.566063,101.445175 34.514221,100.905121 
z"/>
<path fill="#47454C" opacity="1.000000" stroke="none" 
	d="
M117.663193,56.106346 
	C118.003456,56.780857 118.001137,57.518681 117.999100,58.625771 
	C116.134842,60.660954 114.188553,62.192852 111.360374,62.896206 
	C110.356125,62.295807 110.240753,61.516922 110.743538,60.300652 
	C112.571121,57.823708 114.972656,57.041725 117.663193,56.106346 
z"/>
<path fill="#474347" opacity="1.000000" stroke="none" 
	d="
M110.657600,60.002960 
	C110.981712,60.701324 110.994690,61.453800 111.013794,62.580757 
	C110.227463,63.266998 109.435013,63.578754 108.328201,63.943802 
	C108.009109,63.243984 108.004379,62.490875 107.999405,61.360741 
	C108.781593,60.674835 109.564026,60.365952 110.657600,60.002960 
z"/>
<path fill="#464648" opacity="1.000000" stroke="none" 
	d="
M127.040619,62.717052 
	C127.600464,62.227562 128.048157,61.955212 129.207886,61.351978 
	C129.939117,73.367805 129.958298,85.714516 129.961609,98.529449 
	C129.201035,98.997345 128.456329,98.997002 127.338470,98.996071 
	C126.953049,86.975052 126.940758,74.954620 127.040619,62.717052 
z"/>
</svg>