<!-- Orange theme -->
<svg version="1.1" id="Layer_1" xmlns="http://www.w3.org/2000/svg" xmlns:xlink="http://www.w3.org/1999/xlink" x="0px" y="0px"
	 width="100%" viewBox="0 0 190 184" enable-background="new 0 0 190 184" xml:space="preserve">
<g>
	<path fill="#F3A385" d="M95,0.5c52.5,0,95,42.5,95,95c0,52.5-42.5,95-95,95C42.5,190.5,0,148,0,95.5C0,43,42.5,0.5,95,0.5z"/>
	<g>
		<path fill="#473E38" d="M146.4,146.7c-0.5,0-1-0.2-1.4-0.5c-0.8-0.8-0.8-2,0-2.8c17.2-17.2,17.2-45.2,0-62.4
			c-0.8-0.8-0.8-2,0-2.8c0.8-0.8,2-0.8,2.8,0c18.8,18.8,18.8,49.2,0,68C147.4,146.5,146.9,146.7,146.4,146.7z"/>
		<path fill="#473E38" d="M43.6,146.7c-0.5,0-1-0.2-1.4-0.5c-18.8-18.8-18.8-49.2,0-68c0.8-0.8,2-0.8,2.8,0c0.8,0.8,0.8,2,0,2.8
			c-17.2,17.2-17.2,45.2,0,62.4c0.8,0.8,0.8,2,0,2.8C44.6,146.5,44.1,146.7,43.6,146.7z"/>
	</g>
	<g>
		<path fill="#FA7835" d="M95,47.4c26.4,0,47.8,21.4,47.8,47.8c0,26.4-21.4,47.8-47.8,47.8c-26.4,0-47.8-21.4-47.8-47.8
			C47.2,68.8,68.6,47.4,95,47.4z"/>
		<path fill="#473E38" d="M95,144c-27,0-48.8-21.8-48.8-48.8c0-27,21.8-48.8,48.8-48.8c27,0,48.8,21.8,48.8,48.8
			C143.8,122.2,122,144,95,144z M95,48.4c-25.8,0-46.8,21-46.8,46.8s21,46.8,46.8,46.8s46.8-21,46.8-46.8S120.8,48.4,95,48.4z"/>
	</g>
	<g>
		<path fill="#473E38" d="M95,134.5c-21.6,0-39.2-17.6-39.2-39.2c0-21.6,17.6-39.2,39.2-39.2c21.6,0,39.2,17.6,39.2,39.2
			C134.2,116.9,116.6,134.5,95,134.5z M95,58.1c-20.5,0-37.2,16.7-37.2,37.2s16.7,37.2,37.2,37.2s37.2-16.7,37.2-37.2
			S115.5,58.1,95,58.1z"/>
		<path fill="#473E38" d="M95,123.9c-15.8,0-28.6-12.8-28.6-28.6c0-15.8,12.8-28.6,28.6-28.6c15.8,0,28.6,12.8,28.6,28.6
			C123.6,111.1,110.8,123.9,95,123.9z M95,68.7c-14.7,0-26.6,11.9-26.6,26.6s11.9,26.6,26.6,26.6s26.6-11.9,26.6-26.6
			S109.7,68.7,95,68.7z"/>
	</g>
	<g>
		<path fill="#473E38" d="M95,106.1c-6,0-10.8-4.8-10.8-10.8S89,84.5,95,84.5c6,0,10.8,4.8,10.8,10.8S101,106.1,95,106.1z M95,86.5
			c-4.8,0-8.8,3.9-8.8,8.8s3.9,8.8,8.8,8.8s8.8-3.9,8.8-8.8S99.8,86.5,95,86.5z"/>
		<circle fill="#FD7833" cx="95" cy="95.3" r="5.8"/>
	</g>
	<g>
		<path fill="#F3A385" d="M82.4,39c0.2,0.5,0.3,1.1,0.3,1.7c0,2.6-2.1,4.7-4.7,4.7c-2.6,0-4.7-2.1-4.7-4.7c0-0.6,0.1-1.2,0.3-1.7
			H82.4z"/>
		<path fill="#FA7835" d="M116.6,39c0.2,0.5,0.3,1.1,0.3,1.7c0,2.6-2.1,4.7-4.7,4.7c-2.6,0-4.7-2.1-4.7-4.7c0-0.6,0.1-1.2,0.3-1.7
			H116.6z"/>
		<path fill="#F3A385" d="M73.6,40.7c0-0.6,0.1-1.2,0.3-1.7h8.5c-0.2,0.5-0.3,1.1-0.3,1.7c0,2.6,2.1,4.7,4.7,4.7
			c2.6,0,4.7-2.1,4.7-4.7c0-0.6-0.1-1.2-0.3-1.7h8.9c-0.2,0.5-0.3,1.1-0.3,1.7c0,2.6,2.1,4.7,4.7,4.7c2.6,0,4.7-2.1,4.7-4.7
			c0-0.6-0.1-1.2-0.3-1.7h8.5c0.2,0.5,0.3,1.1,0.3,1.7c0,2.6-2.1,4.7-4.7,4.7C112.3,47.1,73.6,46.2,73.6,40.7z"/>
		<path fill="#FD7833" d="M116.9,40.7c0,2.6-2.1,4.7-4.7,4.7c-2.6,0-4.7-2.1-4.7-4.7c0-0.6,0.1-1.2,0.3-1.7h8.8
			C116.8,39.5,116.9,40.1,116.9,40.7z"/>
		<path fill="#F3A385" d="M82.7,40.7c0,2.6-2.1,4.7-4.7,4.7c-2.6,0-4.7-2.1-4.7-4.7c0-0.6,0.1-1.2,0.3-1.7h8.8
			C82.6,39.5,82.7,40.1,82.7,40.7z"/>
	</g>
</g>
</svg>
